<svg width="60" height="53" viewBox="0 0 60 53" fill="none" xmlns="http://www.w3.org/2000/svg">
<g clip-path="url(#clip0)">
<path opacity="0.4" d="M34.3501 15.5781L11.8189 25.3376L8.9095 26.6035L8.70117 20.8957C8.66717 19.8703 8.94511 18.8586 9.49871 17.9927C10.0523 17.1268 10.8558 16.4469 11.8043 16.0418L18.596 13.0999L24.4293 10.5752C25.3828 10.1618 26.438 10.0379 27.4623 10.219C28.4865 10.4 29.434 10.878 30.1855 11.5927L34.3501 15.5781ZM16.646 43.725L11.8762 45.7953C10.9833 46.1829 10.0191 46.3817 9.04484 46.3791C8.07054 46.3764 7.10745 46.1723 6.2168 45.7798C6.26424 45.9594 6.32625 46.135 6.40221 46.3046L8.51263 50.9711C8.89444 51.8004 9.58898 52.4472 10.4464 52.7722C11.3038 53.0971 12.2555 53.0741 13.096 52.7081L16.2762 51.3303C16.6915 51.1537 17.0674 50.8968 17.3818 50.5745C17.6963 50.2522 17.9431 49.871 18.1079 49.453C18.2727 49.035 18.3522 48.5886 18.3418 48.1398C18.3313 47.691 18.2311 47.2487 18.047 46.8388L16.646 43.725ZM50.6543 26.529C50.3488 27.4414 49.8527 28.2794 49.1985 28.9879C48.5444 29.6965 47.7469 30.2597 46.8585 30.6407L42.0835 32.711L43.4949 35.8164C43.8771 36.6453 44.5718 37.2918 45.4291 37.6165C46.2864 37.9412 47.2378 37.9182 48.0783 37.5524L51.2585 36.1756C51.6737 35.9989 52.0495 35.742 52.3639 35.4197C52.6783 35.0973 52.925 34.7161 53.0898 34.2982C53.2546 33.8802 53.3341 33.4339 53.3237 32.9851C53.3133 32.5363 53.2132 32.0941 53.0293 31.6841L50.9251 27.0176C50.8485 26.8476 50.7579 26.6842 50.6543 26.529Z" fill="#5264AD"/>
<path d="M59.9655 50.9752C59.0208 46.4464 54.9218 43.0387 50.0093 43.0387C45.0968 43.0387 40.9978 46.4464 40.0531 50.9752C39.8385 52.0021 40.6614 52.97 41.7333 52.97H58.2853C59.3562 52.97 60.1801 52.001 59.9655 50.9752ZM50.4051 21.6565L48.9989 18.5417L48.2947 16.989C47.0937 14.3286 44.3635 12.8162 41.5635 12.9622L35.0395 6.72021C33.2909 5.0449 31.0804 3.9242 28.6891 3.50061C26.2978 3.07703 23.8338 3.36971 21.6103 4.34142L8.98952 9.80808C4.41139 11.7914 1.56973 16.2374 1.74889 21.1358L2.07702 30.0609C1.07503 31.0206 0.394956 32.2638 0.129352 33.6213C-0.136252 34.9788 0.0255174 36.3847 0.592642 37.6476L1.29577 39.2003L2.70202 42.3141C4.25618 45.7539 8.36347 47.3128 11.8749 45.7911L46.8583 30.6406C50.3708 29.1179 51.9593 25.0953 50.4051 21.6565ZM10.6437 38.8556C8.73535 39.6837 6.90202 38.9912 6.06035 37.1279C5.21868 35.2646 5.93014 33.4728 7.83743 32.6467C9.74472 31.8207 13.8708 33.3713 14.7124 35.2346C15.5541 37.0979 12.552 38.0285 10.6437 38.8556ZM8.90931 26.6035L8.70097 20.8956C8.66697 19.8703 8.94491 18.8586 9.49851 17.9927C10.0521 17.1267 10.8556 16.4469 11.8041 16.0418L24.4249 10.5751C25.3784 10.1617 26.4335 10.0376 27.4577 10.2184C28.4819 10.3993 29.4295 10.8771 30.1812 11.5917L34.3478 15.5832L8.90931 26.6035ZM42.451 25.086C40.5426 25.9141 37.8208 27.4668 36.9791 25.6035C36.1374 23.7402 37.7374 19.7031 39.6458 18.8812C41.5541 18.0593 43.3874 18.7456 44.2291 20.6079C45.0708 22.4701 44.3541 24.2537 42.4458 25.0808L42.451 25.086Z" fill="#5264AD"/>
</g>
<defs>
<clipPath id="clip0">
<rect width="60" height="53" fill="white"/>
</clipPath>
</defs>
</svg>
